<?xml version="1.0" encoding="utf-8"?><svg viewBox="0 0 93 92" xmlns="http://www.w3.org/2000/svg" xmlns:xlink="http://www.w3.org/1999/xlink"><style>:root>svg{display:none}:root>svg:target{display:block}</style><svg fill="none" viewBox="0 0 8 11" id="arrow" xmlns="http://www.w3.org/2000/svg"><path d="M1.5 1L6 5.5 1.5 10" stroke="#24A3FF" stroke-width="2"/></svg><svg fill="none" viewBox="0 0 8 11" id="arrow-hover" xmlns="http://www.w3.org/2000/svg"><path d="M1.5 1L6 5.5 1.5 10" stroke="#F0145A" stroke-width="2"/></svg><svg fill="none" viewBox="0 0 32 32" id="burger-active" xmlns="http://www.w3.org/2000/svg"><path d="M0 8a8 8 0 018-8h16a8 8 0 018 8v16a8 8 0 01-8 8H8a8 8 0 01-8-8V8z" fill="#E6E6F0"/><path d="M7 10h18M7 16h18M7 22h18" stroke="#323264" stroke-width="2"/></svg><svg fill="none" viewBox="0 0 32 32" id="burger-close" xmlns="http://www.w3.org/2000/svg"><path d="M7 7l18 18M25 7L7 25" stroke="#EC6F5D" stroke-width="2"/></svg><svg fill="none" viewBox="0 0 32 33" id="burger-dark" xmlns="http://www.w3.org/2000/svg"><path d="M7 10.5h18M7 16.5h18M7 22.5h18" stroke="#fff" stroke-width="2"/></svg><svg fill="none" viewBox="0 0 32 32" id="burger-light" xmlns="http://www.w3.org/2000/svg"><path d="M7 10h18M7 16h18M7 22h18" stroke="#323264" stroke-width="2"/></svg><svg fill="#FFF" viewBox="0 0 32 32" id="burger-regular" xmlns="http://www.w3.org/2000/svg"><path d="M0 8a8 8 0 018-8h16a8 8 0 018 8v16a8 8 0 01-8 8H8a8 8 0 01-8-8V8z"/><path d="M7 10h18M7 16h18M7 22h18" stroke="#323264" stroke-width="2"/></svg><svg fill="none" viewBox="0 0 42 42" id="button-scroll-hover" xmlns="http://www.w3.org/2000/svg"><circle opacity=".5" cx="21" cy="21" r="20" stroke="#F0145A" stroke-width="2"/><path d="M12 18l9 9 9-9" stroke="#F0145A" stroke-width="2"/></svg><svg fill="none" viewBox="0 0 42 42" id="button-scroll-regular" xmlns="http://www.w3.org/2000/svg"><circle opacity=".5" cx="21" cy="21" r="20" stroke="#fff" stroke-width="2"/><path d="M12 18l9 9 9-9" stroke="#fff" stroke-width="2"/></svg><svg fill="none" viewBox="0 0 32 32" id="clients-icon" xmlns="http://www.w3.org/2000/svg"><path d="M17.232 18.332v-.558a1.232 1.232 0 10-2.463 0v.558a1.232 1.232 0 102.463 0z" fill="#F0145A"/><path d="M18.077 19.014A2.177 2.177 0 0116 20.564a2.177 2.177 0 01-2.076-1.55H5.439a3.47 3.47 0 01-1.496-.34v5.633c0 1.1.9 2 2 2h20.113c1.1 0 2-.9 2-2v-5.633c-.454.216-.96.34-1.495.34h-8.484zM26.477 8.898h-4.8a3.809 3.809 0 00-3.754-3.204h-3.846a3.81 3.81 0 00-3.755 3.204h-4.8c-1.146 0-2.083.9-2.083 2v4.616a2 2 0 002 2h8.39a2.171 2.171 0 01.666-1.466c.012-.012.026-.02.039-.032.086-.08.176-.154.274-.22.036-.023.075-.039.112-.06.081-.046.161-.095.248-.13.069-.03.143-.046.215-.067.062-.019.121-.043.186-.056a2.155 2.155 0 01.862 0c.064.013.123.037.185.056.073.021.146.038.215.067.087.036.166.084.247.13.038.022.078.038.113.061.099.065.188.14.274.22.013.01.027.02.04.032.39.374.637.89.666 1.466h8.39a2 2 0 002-2V10.9c0-1.101-.938-2.001-2.084-2.001zm-14.229 0a1.93 1.93 0 011.829-1.332h3.846a1.93 1.93 0 011.829 1.332h-7.504z" fill="#F0145A"/></svg><svg fill="none" viewBox="0 0 92 92" id="contractual-relations-icon" xmlns="http://www.w3.org/2000/svg"><rect width="92" height="92" rx="24" fill="#fff"/><path d="M56.006 70h-19v6h19v-6z" fill="#000"/><path d="M56.006 70h-19v6h19v-6z" fill="url(#kpaint0_linear_22728_11394)"/><path d="M29.173 16.452L15.738 29.887l3.535 3.535 13.435-13.435-3.535-3.535z" fill="#000"/><path d="M29.173 16.452L15.738 29.887l3.535 3.535 13.435-13.435-3.535-3.535z" fill="url(#kpaint1_linear_22728_11394)"/><path d="M63.113 16.32l-3.536 3.535 13.435 13.436 3.536-3.536L63.113 16.32z" fill="#000"/><path d="M63.113 16.32l-3.536 3.535 13.435 13.436 3.536-3.536L63.113 16.32z" fill="url(#kpaint2_linear_22728_11394)"/><path d="M58.556 23.708l-2.69-.114a5.056 5.056 0 00-4.284 1.432l-5.505 5.505-5.753-5.754a3.84 3.84 0 00-3.858-.909 3.619 3.619 0 01-3.61-.903L32 22.11 21.395 32.718l1.727 1.727-.113 2.692a5.056 5.056 0 001.431 4.283l9.613 9.612a4.985 4.985 0 011.69-3.259l-2.995-2.995.707-.707 3.129 3.129a4.95 4.95 0 011.422-.54v-3.695l-1.722-1.722.707-.707 1.015 1.015V36.2a3.61 3.61 0 013.142-3.625 3.51 3.51 0 01.991.045l-1.23-1.23.708-.707 1.796 1.796a3.542 3.542 0 013.404-1.908 3.602 3.602 0 013.174 3.332 3.558 3.558 0 011.825-.332 3.62 3.62 0 013.19 3.663v3.424a5.003 5.003 0 013.816 3.625l2.788-2.788.708.707-3.316 3.315c0 .014.004.027.004.04v3.32a3.962 3.962 0 002.379-1.128l6.84-6.84a3.84 3.84 0 00.909-3.858 3.618 3.618 0 01.903-3.611l.854-.854L60.284 21.98l-1.728 1.728z" fill="#000"/><path d="M58.556 23.708l-2.69-.114a5.056 5.056 0 00-4.284 1.432l-5.505 5.505-5.753-5.754a3.84 3.84 0 00-3.858-.909 3.619 3.619 0 01-3.61-.903L32 22.11 21.395 32.718l1.727 1.727-.113 2.692a5.056 5.056 0 001.431 4.283l9.613 9.612a4.985 4.985 0 011.69-3.259l-2.995-2.995.707-.707 3.129 3.129a4.95 4.95 0 011.422-.54v-3.695l-1.722-1.722.707-.707 1.015 1.015V36.2a3.61 3.61 0 013.142-3.625 3.51 3.51 0 01.991.045l-1.23-1.23.708-.707 1.796 1.796a3.542 3.542 0 013.404-1.908 3.602 3.602 0 013.174 3.332 3.558 3.558 0 011.825-.332 3.62 3.62 0 013.19 3.663v3.424a5.003 5.003 0 013.816 3.625l2.788-2.788.708.707-3.316 3.315c0 .014.004.027.004.04v3.32a3.962 3.962 0 002.379-1.128l6.84-6.84a3.84 3.84 0 00.909-3.858 3.618 3.618 0 01.903-3.611l.854-.854L60.284 21.98l-1.728 1.728z" fill="url(#kpaint3_linear_22728_11394)"/><path d="M43.88 35.69a2.49 2.49 0 00-2.725-2.188 2.598 2.598 0 00-2.243 2.63v11.357a4 4 0 00-4 4v9.673a3.838 3.838 0 002.086 3.37 3.618 3.618 0 011.914 3.193v1.207h15v-2.444l1.984-1.822a5.059 5.059 0 002.016-4.04V45.488a4 4 0 00-4-4v-4.323a2.622 2.622 0 00-2.276-2.668 2.492 2.492 0 00-2.682 2.1h.458V52.04h-1V36.597h.5v-2.431a2.622 2.622 0 00-2.276-2.668 2.502 2.502 0 00-2.724 2.49v1.702h.5v15.444h-1V35.69h.468zm-4.569 20.35h-1v-8h1v8zM53.413 41.8h1v10.443h-1V41.8z" fill="#000"/><path d="M43.88 35.69a2.49 2.49 0 00-2.725-2.188 2.598 2.598 0 00-2.243 2.63v11.357a4 4 0 00-4 4v9.673a3.838 3.838 0 002.086 3.37 3.618 3.618 0 011.914 3.193v1.207h15v-2.444l1.984-1.822a5.059 5.059 0 002.016-4.04V45.488a4 4 0 00-4-4v-4.323a2.622 2.622 0 00-2.276-2.668 2.492 2.492 0 00-2.682 2.1h.458V52.04h-1V36.597h.5v-2.431a2.622 2.622 0 00-2.276-2.668 2.502 2.502 0 00-2.724 2.49v1.702h.5v15.444h-1V35.69h.468zm-4.569 20.35h-1v-8h1v8zM53.413 41.8h1v10.443h-1V41.8z" fill="url(#kpaint4_linear_22728_11394)"/><defs><linearGradient id="kpaint0_linear_22728_11394" x1="46.506" y1="70" x2="46.506" y2="76" gradientUnits="userSpaceOnUse"><stop stop-color="#EF8080"/><stop offset="1" stop-color="#F0145A"/></linearGradient><linearGradient id="kpaint1_linear_22728_11394" x1="22.455" y1="23.169" x2="25.991" y2="26.705" gradientUnits="userSpaceOnUse"><stop stop-color="#EF8080"/><stop offset="1" stop-color="#F0145A"/></linearGradient><linearGradient id="kpaint2_linear_22728_11394" x1="61.345" y1="18.088" x2="74.78" y2="31.523" gradientUnits="userSpaceOnUse"><stop stop-color="#EF8080"/><stop offset="1" stop-color="#F0145A"/></linearGradient><linearGradient id="kpaint3_linear_22728_11394" x1="46.143" y1="21.98" x2="46.143" y2="51.032" gradientUnits="userSpaceOnUse"><stop stop-color="#EF8080"/><stop offset="1" stop-color="#F0145A"/></linearGradient><linearGradient id="kpaint4_linear_22728_11394" x1="46.412" y1="31.488" x2="46.412" y2="68.932" gradientUnits="userSpaceOnUse"><stop stop-color="#EF8080"/><stop offset="1" stop-color="#F0145A"/></linearGradient></defs></svg><svg fill="none" viewBox="0 0 92 92" id="e-commerce-icon" xmlns="http://www.w3.org/2000/svg"><rect width="92" height="92" rx="24" fill="#fff"/><path d="M37.734 42.125a2 2 0 002-2v-7.8A6.332 6.332 0 0146.058 26a6.333 6.333 0 016.325 6.325v7.8a2 2 0 004 0v-7.8C56.383 26.632 51.752 22 46.058 22c-5.692 0-10.324 4.632-10.324 10.325v7.8a2 2 0 002 2z" fill="url(#lpaint0_linear_22728_11375)"/><path d="M69 37.633H58.384v2.494c0 2.206-1.794 4-4 4s-4-1.794-4-4v-2.494h-8.649v2.494c0 2.206-1.794 4-4 4s-4-1.794-4-4v-2.494H23c-.552 0-.893.435-.762.97l6.998 28.498C29.658 68.703 31.344 70 33 70h26c1.658 0 3.342-1.298 3.766-2.9l6.996-28.497c.131-.537-.209-.971-.762-.971z" fill="url(#lpaint1_linear_22728_11375)"/><path d="M42.6 48.4a1.4 1.4 0 112.8 0v6.95V54a1.4 1.4 0 112.8 0v1.676c.013-.762.635-2.376 1.4-2.376a1.4 1.4 0 011.4 1.4s.041 1.041.133 1.103C51.357 55.33 51.84 54 52.4 54a1.4 1.4 0 011.4 1.4v7a2.8 2.8 0 01-2.8 2.8h-4.68a5.6 5.6 0 01-3.96-1.64l-2.21-2.21L37 59.94c.005-1.337 1.053-1.74 2.1-1.74.902 0 1.714.14 3.5 1.05V48.4z" fill="#fff"/><defs><linearGradient id="lpaint0_linear_22728_11375" x1="46.058" y1="22" x2="46.058" y2="42.125" gradientUnits="userSpaceOnUse"><stop stop-color="#EF8080"/><stop offset="1" stop-color="#F0145A"/></linearGradient><linearGradient id="lpaint1_linear_22728_11375" x1="46" y1="37.633" x2="46" y2="70.002" gradientUnits="userSpaceOnUse"><stop stop-color="#EF8080"/><stop offset="1" stop-color="#F0145A"/></linearGradient></defs></svg><svg fill="none" viewBox="0 0 32 32" id="experience-icon" xmlns="http://www.w3.org/2000/svg"><path d="M27.113 6.305a.82.82 0 00-.598-.252c-.114 0-.355.094-.723.28-.367.185-.757.392-1.168.623-.411.23-.898.438-1.46.624-.562.185-1.082.28-1.56.28-.442 0-.832-.085-1.168-.253-1.114-.522-2.084-.912-2.907-1.169a8.879 8.879 0 00-2.655-.385c-1.636 0-3.5.532-5.589 1.594-.431.215-.74.381-.94.503l-.199-1.455a2.11 2.11 0 00.738-1.598 2.124 2.124 0 10-4.248 0c0 .766.409 1.431 1.016 1.805l2.87 21.045a1.25 1.25 0 002.476-.337L9.845 19.15c2.093-1.038 3.903-1.562 5.426-1.562.647 0 1.277.097 1.892.292.615.195 1.127.407 1.534.637.407.23.887.443 1.44.637.553.195 1.1.292 1.639.292 1.363 0 2.995-.513 4.898-1.54.239-.124.414-.246.524-.365.111-.12.166-.29.166-.51V6.901a.82.82 0 00-.25-.597z" fill="#F0145A"/></svg><svg fill="none" viewBox="0 0 38 38" id="fb-footer" xmlns="http://www.w3.org/2000/svg"><g clip-path="url(#nclip0_22721_8205)"><path d="M38 19.116C38 8.56 29.493 0 19 0S0 8.559 0 19.116C0 28.657 6.948 36.566 16.031 38V24.642h-4.824v-5.526h4.824v-4.211c0-4.791 2.837-7.438 7.177-7.438 2.079 0 4.253.374 4.253.374v4.704h-2.396c-2.36 0-3.096 1.473-3.096 2.985v3.586h5.27l-.843 5.526h-4.427V38C31.052 36.566 38 28.657 38 19.116z" fill="#24A3FF"/></g><defs><clipPath id="nclip0_22721_8205"><path fill="#fff" d="M0 0h38v38H0z"/></clipPath></defs></svg><svg fill="none" viewBox="0 0 38 38" id="fb-footer-hover" xmlns="http://www.w3.org/2000/svg"><g clip-path="url(#oclip0_26876_933)"><path d="M38 19.116C38 8.56 29.493 0 19 0S0 8.559 0 19.116C0 28.657 6.948 36.566 16.031 38V24.642h-4.824v-5.526h4.824v-4.211c0-4.791 2.837-7.438 7.177-7.438 2.079 0 4.253.374 4.253.374v4.704h-2.396c-2.36 0-3.096 1.473-3.096 2.985v3.586h5.27l-.843 5.526h-4.427V38C31.052 36.566 38 28.657 38 19.116z" fill="#F0145A"/></g><defs><clipPath id="oclip0_26876_933"><path fill="#fff" d="M0 0h38v38H0z"/></clipPath></defs></svg><svg fill="none" viewBox="0 0 24 25" id="fb-header" xmlns="http://www.w3.org/2000/svg"><g clip-path="url(#pclip0_27940_2819)"><path d="M24 12.573C24 5.905 18.627.5 12 .5S0 5.905 0 12.573C0 18.6 4.388 23.594 10.125 24.5v-8.437H7.078v-3.49h3.047v-2.66c0-3.025 1.791-4.697 4.533-4.697 1.313 0 2.686.236 2.686.236v2.971H15.83c-1.491 0-1.956.93-1.956 1.886v2.264h3.328l-.532 3.49h-2.796V24.5C19.612 23.594 24 18.6 24 12.573z" fill="#fff"/></g><defs><clipPath id="pclip0_27940_2819"><path fill="#fff" transform="translate(0 .5)" d="M0 0h24v24H0z"/></clipPath></defs></svg><svg fill="none" viewBox="0 0 24 25" id="fb-header-hover" xmlns="http://www.w3.org/2000/svg"><g clip-path="url(#qclip0_27940_2079)"><path d="M24 12.573C24 5.905 18.627.5 12 .5S0 5.905 0 12.573C0 18.6 4.388 23.594 10.125 24.5v-8.437H7.078v-3.49h3.047v-2.66c0-3.025 1.791-4.697 4.533-4.697 1.313 0 2.686.236 2.686.236v2.971H15.83c-1.491 0-1.956.93-1.956 1.886v2.264h3.328l-.532 3.49h-2.796V24.5C19.612 23.594 24 18.6 24 12.573z" fill="#F0145A"/></g><defs><clipPath id="qclip0_27940_2079"><path fill="#fff" transform="translate(0 .5)" d="M0 0h24v24H0z"/></clipPath></defs></svg><svg fill="none" viewBox="0 0 24 25" id="fb-header-light" xmlns="http://www.w3.org/2000/svg"><path d="M24 12.573C24 5.905 18.627.5 12 .5S0 5.905 0 12.573C0 18.6 4.388 23.594 10.125 24.5v-8.437H7.078v-3.49h3.047v-2.66c0-3.025 1.791-4.697 4.533-4.697 1.313 0 2.686.236 2.686.236v2.971H15.83c-1.491 0-1.956.93-1.956 1.886v2.264h3.328l-.532 3.49h-2.796V24.5C19.612 23.594 24 18.6 24 12.573z" fill="#B3B3BA"/></svg><svg fill="none" viewBox="0 0 93 92" id="judicial-icon" xmlns="http://www.w3.org/2000/svg"><rect x=".667" width="92" height="92" rx="24" fill="#fff"/><path d="M55.019 34.389a1.872 1.872 0 002.65 0l2.608-2.608a1.878 1.878 0 000-2.651l-6.583-6.581a1.871 1.871 0 00-2.648 0l-2.61 2.608a1.875 1.875 0 000 2.648l6.583 6.584z" fill="url(#spaint0_linear_22728_11406)"/><path d="M39.433 50.265a1.876 1.876 0 002.648 0l2.609-2.61a1.872 1.872 0 000-2.649l-6.583-6.583a1.874 1.874 0 00-2.65 0l-2.607 2.608a1.875 1.875 0 000 2.65l6.583 6.584z" fill="url(#spaint1_linear_22728_11406)"/><path d="M69.315 50.891l-2.647-2.65a1.875 1.875 0 00-2.648 0l-1.161 1.16-11.205-11.207 2.427-2.428-6.733-6.73-2.428 2.427-3.092 3.09-2.374 2.374 6.732 6.733 2.377-2.373 11.203 11.205-1.048 1.05a1.87 1.87 0 000 2.647l2.647 2.648a1.87 1.87 0 002.65 0l5.299-5.297a1.871 1.871 0 000-2.649z" fill="url(#spaint2_linear_22728_11406)"/><path d="M49.744 58.943a2.173 2.173 0 00-2.173-2.173H30.603c-1.2 0-2.173.973-2.173 2.172v3.527h-4.763v7.39h30.558v-7.39h-4.481v-3.526z" fill="url(#spaint3_linear_22728_11406)"/><defs><linearGradient id="spaint0_linear_22728_11406" x1="54.357" y1="22" x2="54.357" y2="34.939" gradientUnits="userSpaceOnUse"><stop stop-color="#EF8080"/><stop offset="1" stop-color="#F0145A"/></linearGradient><linearGradient id="spaint1_linear_22728_11406" x1="38.77" y1="37.875" x2="38.77" y2="50.812" gradientUnits="userSpaceOnUse"><stop stop-color="#EF8080"/><stop offset="1" stop-color="#F0145A"/></linearGradient><linearGradient id="spaint2_linear_22728_11406" x1="54.659" y1="29.035" x2="54.659" y2="59.388" gradientUnits="userSpaceOnUse"><stop stop-color="#EF8080"/><stop offset="1" stop-color="#F0145A"/></linearGradient><linearGradient id="spaint3_linear_22728_11406" x1="38.946" y1="56.77" x2="38.946" y2="69.859" gradientUnits="userSpaceOnUse"><stop stop-color="#EF8080"/><stop offset="1" stop-color="#F0145A"/></linearGradient></defs></svg><svg fill="none" viewBox="0 0 93 92" id="legal-support-icon" xmlns="http://www.w3.org/2000/svg"><rect x=".333" width="92" height="92" rx="24" fill="#fff"/><path fill-rule="evenodd" clip-rule="evenodd" d="M67.785 49.078v17.295c0 3.094-2.425 5.629-5.388 5.629H30.304c-2.964 0-5.388-2.535-5.388-5.629V49.078h16.666v7.51l4.768 3.134 4.769-3.133v-7.51h16.666z" fill="url(#tpaint0_linear_22728_11381)"/><path fill-rule="evenodd" clip-rule="evenodd" d="M43.252 49.078v6.609l3.098 2.035 3.098-2.035v-6.609h-6.196z" fill="url(#tpaint1_linear_22728_11381)"/><path fill-rule="evenodd" clip-rule="evenodd" d="M26.407 29.145h39.886c1.883 0 3.421 1.708 3.421 3.795v10.253c0 2.088-1.538 3.796-3.42 3.796H26.406c-1.883 0-3.42-1.708-3.42-3.796V32.94c0-2.087 1.538-3.795 3.42-3.795z" fill="url(#tpaint2_linear_22728_11381)"/><path fill-rule="evenodd" clip-rule="evenodd" d="M38.045 19.953h16.61a2.814 2.814 0 012.806 2.806v4.378h-3.557V24.55c0-.698-.57-1.27-1.268-1.27H40.064c-.697 0-1.267.572-1.267 1.27v2.587H35.24v-4.378a2.814 2.814 0 012.805-2.806z" fill="url(#tpaint3_linear_22728_11381)"/><defs><linearGradient id="tpaint0_linear_22728_11381" x1="46.35" y1="49.078" x2="46.35" y2="72.002" gradientUnits="userSpaceOnUse"><stop stop-color="#EF8080"/><stop offset="1" stop-color="#F0145A"/></linearGradient><linearGradient id="tpaint1_linear_22728_11381" x1="46.35" y1="49.078" x2="46.35" y2="57.722" gradientUnits="userSpaceOnUse"><stop stop-color="#EF8080"/><stop offset="1" stop-color="#F0145A"/></linearGradient><linearGradient id="tpaint2_linear_22728_11381" x1="46.35" y1="29.145" x2="46.35" y2="46.989" gradientUnits="userSpaceOnUse"><stop stop-color="#EF8080"/><stop offset="1" stop-color="#F0145A"/></linearGradient><linearGradient id="tpaint3_linear_22728_11381" x1="46.35" y1="19.953" x2="46.35" y2="27.137" gradientUnits="userSpaceOnUse"><stop stop-color="#EF8080"/><stop offset="1" stop-color="#F0145A"/></linearGradient></defs></svg><svg fill="none" viewBox="0 0 32 32" id="probono-icon" xmlns="http://www.w3.org/2000/svg"><path d="M16.097 3.553c-6.845 0-12.413 5.568-12.413 12.413 0 6.845 5.568 12.414 12.413 12.414 6.845 0 12.413-5.569 12.413-12.414S22.942 3.553 16.097 3.553zm6.858 11.506l-3.593 2.6 1.384 4.23a.669.669 0 01-1.027.752l-3.622-2.62-3.621 2.62a.67.67 0 01-1.027-.752l1.385-4.23-3.594-2.6a.668.668 0 01.392-1.21h4.449l1.377-4.211a.67.67 0 011.28 0l1.377 4.21h4.449a.669.669 0 01.392 1.21z" fill="#F0145A"/></svg><svg fill="none" viewBox="0 0 93 92" id="protection-icon" xmlns="http://www.w3.org/2000/svg"><rect x=".333" width="92" height="92" rx="24" fill="#fff"/><path d="M55.565 51.696c2.352 0 4.678.588 6.726 1.701.372.2.713.44 1.062.67 3.361-6.58 5.135-13.54 5.135-20.328 0-.382 0-.776-.012-1.17a1.244 1.244 0 00-.973-1.156c-7.433-1.625-14.166-5.65-19.458-11.631l-.788-.899a1.207 1.207 0 00-.923-.418c-.381-.05-.677.135-.91.394l-1.207 1.33c-5.021 5.525-11.347 9.34-18.289 11.04l-.8.196a1.21 1.21 0 00-.935 1.157C23.75 49.886 33.965 62.33 38.37 66.883a41.698 41.698 0 003.788 3.449 14.227 14.227 0 01-.748-4.482c0-7.805 6.35-14.154 14.154-14.154z" fill="url(#vpaint0_linear_22728_11400)"/><path d="M61.116 55.56a11.654 11.654 0 00-5.551-1.404c-6.45 0-11.692 5.243-11.692 11.693 0 2.178.59 4.307 1.723 6.129 2.154 3.483 5.87 5.563 9.969 5.563 6.437 0 11.692-5.243 11.692-11.692 0-4.308-2.35-8.247-6.141-10.29zm.437 8.732l-9.145 7.116-3.122-4.883a1.23 1.23 0 112.074-1.326l1.667 2.608 7.014-5.458a1.23 1.23 0 111.512 1.943z" fill="url(#vpaint1_linear_22728_11400)"/><defs><linearGradient id="vpaint0_linear_22728_11400" x1="46.333" y1="18.457" x2="46.333" y2="70.332" gradientUnits="userSpaceOnUse"><stop stop-color="#EF8080"/><stop offset="1" stop-color="#F0145A"/></linearGradient><linearGradient id="vpaint1_linear_22728_11400" x1="55.565" y1="54.156" x2="55.565" y2="77.541" gradientUnits="userSpaceOnUse"><stop stop-color="#EF8080"/><stop offset="1" stop-color="#F0145A"/></linearGradient></defs></svg><svg fill="none" viewBox="0 0 93 92" id="relationships-icon" xmlns="http://www.w3.org/2000/svg"><rect x=".667" width="92" height="92" rx="24" fill="#fff"/><g clip-path="url(#wclip0_22728_11387)"><path d="M75.193 51.727a5.595 5.595 0 00-2.15-.429 5.61 5.61 0 00-4.187 1.863l-1.22-.505-3.48-1.441c.494-1.653.76-3.404.76-5.215 0-1.812-.266-3.562-.76-5.215l3.48-1.441 1.22-.506a5.61 5.61 0 004.186 1.863 5.631 5.631 0 005.195-7.779 5.61 5.61 0 00-5.198-3.473 5.634 5.634 0 00-5.615 5.923l-1.227.508-3.479 1.441a18.381 18.381 0 00-7.373-7.373l1.441-3.479.508-1.225a5.61 5.61 0 005.494-3.465A5.632 5.632 0 0057.593 14a5.61 5.61 0 00-5.199 3.473 5.634 5.634 0 001.436 6.334l-.507 1.223-1.441 3.48a18.197 18.197 0 00-5.215-.76c-1.812 0-3.562.267-5.215.76l-1.441-3.48-.507-1.223a5.634 5.634 0 001.435-6.334A5.61 5.61 0 0035.741 14a5.631 5.631 0 00-5.195 7.779 5.61 5.61 0 005.494 3.465l.508 1.226 1.44 3.479a18.38 18.38 0 00-7.372 7.373l-3.48-1.441-1.227-.508a5.634 5.634 0 00-3.463-5.494 5.595 5.595 0 00-2.151-.43 5.61 5.61 0 00-5.199 3.474 5.632 5.632 0 005.196 7.779 5.61 5.61 0 004.185-1.864l1.22.506 3.48 1.441a18.19 18.19 0 00-.76 5.215c0 1.812.267 3.562.76 5.215l-3.48 1.441-1.22.505a5.61 5.61 0 00-4.186-1.863 5.632 5.632 0 00-5.195 7.779 5.61 5.61 0 005.199 3.473c.74 0 1.463-.144 2.15-.429a5.634 5.634 0 003.464-5.494l1.227-.508 3.48-1.44a18.382 18.382 0 007.373 7.372l-1.441 3.48-.508 1.225a5.61 5.61 0 00-5.494 3.465A5.632 5.632 0 0035.74 78a5.61 5.61 0 005.198-3.474 5.634 5.634 0 00-1.435-6.333l.506-1.223 1.442-3.48c1.653.493 3.403.76 5.215.76 1.811 0 3.561-.267 5.215-.76l1.441 3.48.507 1.223a5.634 5.634 0 00-1.436 6.334A5.61 5.61 0 0057.592 78a5.631 5.631 0 005.195-7.779 5.61 5.61 0 00-5.494-3.465l-.507-1.226-1.441-3.479a18.381 18.381 0 007.373-7.373l3.479 1.441 1.227.508a5.634 5.634 0 003.464 5.494c.687.285 1.41.43 2.15.43a5.61 5.61 0 005.2-3.474 5.631 5.631 0 00-3.045-7.35zM46.667 60.5c-7.995 0-14.5-6.505-14.5-14.5s6.505-14.5 14.5-14.5 14.5 6.505 14.5 14.5-6.505 14.5-14.5 14.5z" fill="#000"/><path d="M75.193 51.727a5.595 5.595 0 00-2.15-.429 5.61 5.61 0 00-4.187 1.863l-1.22-.505-3.48-1.441c.494-1.653.76-3.404.76-5.215 0-1.812-.266-3.562-.76-5.215l3.48-1.441 1.22-.506a5.61 5.61 0 004.186 1.863 5.631 5.631 0 005.195-7.779 5.61 5.61 0 00-5.198-3.473 5.634 5.634 0 00-5.615 5.923l-1.227.508-3.479 1.441a18.381 18.381 0 00-7.373-7.373l1.441-3.479.508-1.225a5.61 5.61 0 005.494-3.465A5.632 5.632 0 0057.593 14a5.61 5.61 0 00-5.199 3.473 5.634 5.634 0 001.436 6.334l-.507 1.223-1.441 3.48a18.197 18.197 0 00-5.215-.76c-1.812 0-3.562.267-5.215.76l-1.441-3.48-.507-1.223a5.634 5.634 0 001.435-6.334A5.61 5.61 0 0035.741 14a5.631 5.631 0 00-5.195 7.779 5.61 5.61 0 005.494 3.465l.508 1.226 1.44 3.479a18.38 18.38 0 00-7.372 7.373l-3.48-1.441-1.227-.508a5.634 5.634 0 00-3.463-5.494 5.595 5.595 0 00-2.151-.43 5.61 5.61 0 00-5.199 3.474 5.632 5.632 0 005.196 7.779 5.61 5.61 0 004.185-1.864l1.22.506 3.48 1.441a18.19 18.19 0 00-.76 5.215c0 1.812.267 3.562.76 5.215l-3.48 1.441-1.22.505a5.61 5.61 0 00-4.186-1.863 5.632 5.632 0 00-5.195 7.779 5.61 5.61 0 005.199 3.473c.74 0 1.463-.144 2.15-.429a5.634 5.634 0 003.464-5.494l1.227-.508 3.48-1.44a18.382 18.382 0 007.373 7.372l-1.441 3.48-.508 1.225a5.61 5.61 0 00-5.494 3.465A5.632 5.632 0 0035.74 78a5.61 5.61 0 005.198-3.474 5.634 5.634 0 00-1.435-6.333l.506-1.223 1.442-3.48c1.653.493 3.403.76 5.215.76 1.811 0 3.561-.267 5.215-.76l1.441 3.48.507 1.223a5.634 5.634 0 00-1.436 6.334A5.61 5.61 0 0057.592 78a5.631 5.631 0 005.195-7.779 5.61 5.61 0 00-5.494-3.465l-.507-1.226-1.441-3.479a18.381 18.381 0 007.373-7.373l3.479 1.441 1.227.508a5.634 5.634 0 003.464 5.494c.687.285 1.41.43 2.15.43a5.61 5.61 0 005.2-3.474 5.631 5.631 0 00-3.045-7.35zM46.667 60.5c-7.995 0-14.5-6.505-14.5-14.5s6.505-14.5 14.5-14.5 14.5 6.505 14.5 14.5-6.505 14.5-14.5 14.5z" fill="url(#wpaint0_linear_22728_11387)"/><path d="M46.667 35.25c-5.928 0-10.75 4.822-10.75 10.75s4.822 10.75 10.75 10.75c5.927 0 10.75-4.822 10.75-10.75s-4.823-10.75-10.75-10.75zm1.875 14.875h-3.75v-8.25h3.75v8.25z" fill="#000"/><path d="M46.667 35.25c-5.928 0-10.75 4.822-10.75 10.75s4.822 10.75 10.75 10.75c5.927 0 10.75-4.822 10.75-10.75s-4.823-10.75-10.75-10.75zm1.875 14.875h-3.75v-8.25h3.75v8.25z" fill="url(#wpaint1_linear_22728_11387)"/></g><defs><linearGradient id="wpaint0_linear_22728_11387" x1="46.667" y1="14" x2="46.667" y2="78" gradientUnits="userSpaceOnUse"><stop stop-color="#EF8080"/><stop offset="1" stop-color="#F0145A"/></linearGradient><linearGradient id="wpaint1_linear_22728_11387" x1="46.667" y1="35.25" x2="46.667" y2="56.75" gradientUnits="userSpaceOnUse"><stop stop-color="#EF8080"/><stop offset="1" stop-color="#F0145A"/></linearGradient><clipPath id="wclip0_22728_11387"><path fill="#fff" transform="translate(14.667 14)" d="M0 0h64v64H0z"/></clipPath></defs></svg><svg fill="none" viewBox="0 0 21 47" id="slash" xmlns="http://www.w3.org/2000/svg"><path fill-rule="evenodd" clip-rule="evenodd" d="M15.175 0H21L5.825 47H0L15.175 0z" fill="#F0145A"/></svg></svg>